<svg width="142.000000" height="22.091797" viewBox="0 0 142 22.0918" fill="none" xmlns="http://www.w3.org/2000/svg" xmlns:xlink="http://www.w3.org/1999/xlink">
	<desc>
			Created with Pixso.
	</desc>
	<defs/>
	<circle cx="8.500000" cy="11.000000" r="8.000000" stroke="#FFFFFF" stroke-opacity="1.000000" stroke-width="1.000000"/>
	<path d="M35.53 4.3C35.53 4.8 35.1 5.21 34.58 5.21C34.06 5.21 33.64 4.8 33.64 4.3C33.64 3.81 34.06 3.39 34.58 3.39C35.1 3.39 35.53 3.81 35.53 4.3ZM67.71 3.45L68.98 3.45L68.98 18L67.71 18L67.71 3.45ZM27.3 6.94C29.29 6.94 30.46 7.9 30.99 9.48L29.84 9.81C29.5 8.83 28.77 8.05 27.3 8.05C25.83 8.05 24.77 8.83 24.77 9.93C24.77 10.88 25.4 11.43 26.76 11.76L28.41 12.17C30.23 12.62 31.15 13.59 31.15 15.05C31.15 16.9 29.5 18.22 27.1 18.22C24.96 18.22 23.52 17.23 23.14 15.42L24.35 15.12C24.66 16.41 25.59 17.09 27.08 17.09C28.76 17.09 29.84 16.24 29.84 15.1C29.84 14.23 29.27 13.62 28.07 13.33L26.29 12.9C24.39 12.45 23.5 11.45 23.5 9.99C23.5 8.2 25.1 6.94 27.3 6.94ZM56.98 22.09L55.72 22.09L55.72 7.09L56.94 7.09L56.94 9.17L57.09 9.17C57.54 8.19 58.42 6.94 60.43 6.94C63.12 6.94 64.94 9.2 64.94 12.57C64.94 15.95 63.11 18.22 60.45 18.22C58.47 18.22 57.53 16.97 57.09 15.97L56.98 15.97L56.98 22.09ZM80.88 15.67C80.38 17.04 78.91 18.22 76.72 18.22C73.67 18.22 71.75 15.91 71.75 12.6C71.75 9.3 73.71 6.94 76.53 6.94C78.9 6.94 81.15 8.65 81.15 12.29L81.15 12.92L73.02 12.92C73.08 15.44 74.49 17.06 76.72 17.06C78.27 17.06 79.26 16.26 79.68 15.28L80.88 15.67ZM39.82 18L38.56 18L38.56 7.09L39.78 7.09L39.78 8.76L39.9 8.76C40.33 7.63 41.4 6.95 42.83 6.95C44.33 6.95 45.29 7.69 45.78 8.93L45.87 8.93C46.36 7.72 47.51 6.95 49.1 6.95C51.12 6.95 52.38 8.24 52.38 10.69L52.38 18L51.11 18L51.11 10.69C51.11 8.97 50.16 8.1 48.71 8.1C47.05 8.1 46.11 9.25 46.11 10.81L46.11 18L44.82 18L44.82 10.57C44.82 9.09 43.95 8.1 42.46 8.1C40.95 8.1 39.82 9.31 39.82 11.01L39.82 18ZM35.2 18L33.94 18L33.94 7.09L35.2 7.09L35.2 18ZM60.3 8.09C58.16 8.09 56.97 9.93 56.97 12.55C56.97 15.18 58.19 17.06 60.3 17.06C62.47 17.06 63.67 15.09 63.67 12.55C63.67 10.03 62.49 8.09 60.3 8.09ZM76.53 8.09C74.54 8.09 73.17 9.77 73.03 11.8L79.86 11.8C79.86 9.7 78.49 8.09 76.53 8.09Z" fill="#FFFFFF" fill-opacity="1.000000" fill-rule="evenodd"/>
	<rect x="88.500000" y="3.000000" rx="8.000000" width="31.000000" height="16.000000" stroke="#FFFFFF" stroke-opacity="1.000000" stroke-width="1.000000"/>
	<circle cx="133.500000" cy="11.000000" r="8.000000" stroke="#FFFFFF" stroke-opacity="1.000000" stroke-width="1.000000"/>
</svg>
