<svg width="255.000000" height="135.000000" viewBox="0 0 255 135" fill="none" xmlns="http://www.w3.org/2000/svg" xmlns:xlink="http://www.w3.org/1999/xlink">
	<desc>
			Created with Pixso.
	</desc>
	<defs>
		<clipPath id="clip1_577">
			<rect id="hahnemuehle-logo-vector 1" width="197.000000" height="55.000000" transform="translate(29.000000 34.000000)" fill="white" fill-opacity="0"/>
		</clipPath>
	</defs>
	<rect id="hahnemuehle-logo-vector 1" width="197.000000" height="55.000000" transform="translate(29.000000 34.000000)" fill="#FFFFFF" fill-opacity="0"/>
	<g clip-path="url(#clip1_577)">
		<path id="Vector" d="M91.57 82.9L91.57 63.53L89.11 63.53L89.11 71.86L80.69 71.86L80.69 63.53L78.23 63.53L78.23 82.9L80.69 82.9L80.69 74.13L89.14 74.13L89.14 82.9L91.57 82.9ZM106.19 73.03C106.19 70 104.88 68.43 100.88 68.43C99.37 68.43 97.6 68.66 96.32 69.06L96.55 71.03C97.67 70.8 99.4 70.56 100.72 70.56C102.98 70.56 103.73 71.2 103.73 72.96L103.73 75.16L100.06 75.16C97.24 75.16 95.8 76.23 95.8 79.16C95.8 81.66 96.91 83.23 99.5 83.23C101.17 83.23 102.78 82.76 104.03 81.9L104.19 82.96L106.22 82.96L106.19 73.03ZM103.76 79.96C102.68 80.66 101.37 81.13 100.16 81.13C98.45 81.13 98.19 80.53 98.19 79.1C98.19 77.66 98.75 77.2 100.22 77.2L103.76 77.2L103.76 79.96ZM121.2 82.9L121.2 72.03C121.2 69.86 120.42 68.43 118.19 68.43C116.58 68.43 114.35 69.13 112.81 69.93L112.81 62.63L110.42 62.96L110.42 82.93L112.81 82.93L112.81 72.26C114.32 71.5 116.45 70.8 117.47 70.8C118.35 70.8 118.81 71.16 118.81 72.1L118.81 82.93L121.2 82.93L121.2 82.9ZM136.44 82.9L136.44 72.03C136.44 69.86 135.66 68.43 133.43 68.43C131.79 68.43 129.36 69.16 127.82 69.96L127.59 68.76L125.63 68.76L125.63 82.93L128.02 82.93L128.02 72.23C129.53 71.46 131.66 70.8 132.67 70.8C133.56 70.8 134.02 71.16 134.02 72.1L134.02 82.93L136.44 82.93L136.44 82.9ZM142.57 77.96L142.57 76.8L150.87 76.8L150.87 73.83C150.87 70.9 149.75 68.46 145.62 68.46C141.49 68.46 140.18 70.83 140.18 73.76L140.18 78C140.18 81.2 141.59 83.2 145.69 83.2C147.42 83.2 149.29 82.9 150.6 82.4L150.31 80.43C148.77 80.83 147.29 81.1 145.92 81.1C143.2 81.1 142.57 80.2 142.57 77.96ZM142.57 73.56C142.57 71.56 143.36 70.5 145.62 70.5C147.88 70.5 148.54 71.63 148.54 73.56L148.54 74.73L142.57 74.73L142.57 73.56ZM173.88 82.9L173.88 72.03C173.88 69.86 173.09 68.43 170.86 68.43C169.12 68.43 166.76 69.13 165.09 69.96C164.7 69 163.88 68.43 162.44 68.43C160.8 68.43 158.37 69.16 156.83 69.96L156.6 68.76L154.64 68.76L154.64 82.93L157.03 82.93L157.03 72.23C158.54 71.46 160.67 70.8 161.68 70.8C162.57 70.8 163.03 71.16 163.03 72.1L163.03 82.93L165.42 82.93L165.42 72.23C166.93 71.46 168.93 70.8 170.07 70.8C170.96 70.8 171.42 71.16 171.42 72.1L171.42 82.93L173.88 82.93L173.88 82.9ZM178.17 68.76L178.17 79.63C178.17 81.8 178.96 83.23 181.19 83.23C182.83 83.23 185.25 82.5 186.79 81.7L187.02 82.9L188.99 82.9L188.99 68.73L186.6 68.73L186.6 79.43C185.09 80.2 182.96 80.86 181.94 80.86C181.06 80.86 180.6 80.5 180.6 79.56L180.6 68.73L178.17 68.76ZM180.11 66.6L182.33 66.6L182.33 64.16L180.11 64.16L180.11 66.6ZM185.05 66.6L187.28 66.6L187.28 64.16L185.05 64.16L185.05 66.6ZM204.36 82.9L204.36 72.03C204.36 69.86 203.57 68.43 201.35 68.43C199.74 68.43 197.51 69.13 195.97 69.93L195.97 62.63L193.58 62.96L193.58 82.93L195.97 82.93L195.97 72.26C197.48 71.5 199.61 70.8 200.62 70.8C201.51 70.8 201.97 71.16 201.97 72.1L201.97 82.93L204.36 82.93L204.36 82.9ZM211.21 82.9L211.21 62.6L208.82 62.93L208.82 82.9L211.21 82.9ZM217.44 77.96L217.44 76.8L225.73 76.8L225.73 73.83C225.73 70.9 224.62 68.46 220.49 68.46C216.36 68.46 215.05 70.83 215.05 73.76L215.05 78C215.05 81.2 216.46 83.2 220.55 83.2C222.29 83.2 224.16 82.9 225.47 82.4L225.18 80.43C223.64 80.83 222.16 81.1 220.78 81.1C218.06 81.1 217.44 80.2 217.44 77.96ZM217.44 73.56C217.44 71.56 218.23 70.5 220.49 70.5C222.75 70.5 223.41 71.63 223.41 73.56L223.41 74.73L217.44 74.73L217.44 73.56Z" fill="#6F7072" fill-opacity="1.000000" fill-rule="nonzero"/>
		<path id="Vector" d="M67.54 56.03C67.31 53.43 66.2 51.13 64.36 49.63C62.72 48.26 60.63 47.59 58.59 47.86C56.1 48.13 54.07 50.06 52.79 51.63C51.35 53.36 50.37 55.26 49.84 56.63C48.56 55.49 47.74 54.16 47.35 52.53C47.02 51.13 46.66 48.36 46.4 46.36C46.2 45.03 46.11 43.96 46.01 43.59C45.74 42.36 44.93 40.26 44.4 39.16C45.55 38.93 46.43 38.63 47.29 37.79C48.14 36.93 49.51 35.59 49.55 35.59L50.37 34.79L49.22 34.69C48.99 34.66 43.16 34.23 42.17 34.26C41.48 34.29 40.63 34.66 39.94 35.33C39.39 35.83 38.66 36.69 38.14 38.09C37.62 38.19 32.86 39.13 32.86 39.13L32.86 40.16L33.26 40.26C34.73 40.59 36.6 41.39 37.71 42.23L37.65 42.26C36.7 42.89 35.42 43.76 34.34 44.76C32.96 46.03 32.31 47.16 32.4 48.16C32.47 48.86 32.76 49.39 33.26 49.76C33.65 50.03 34.14 50.16 34.7 50.16C34.04 51.33 33.68 52.23 33.42 53.09C33.09 54.29 32.96 55.49 33.13 56.99C33.32 59.29 34.47 61.59 35.78 63.59L29 63.59L29 79.56C29 80.99 29.29 82.36 29.91 83.56C30.47 84.69 31.26 85.66 32.24 86.49C34.01 87.96 36.37 88.83 38.57 88.83C40.76 88.83 43.12 87.96 44.89 86.49C45.88 85.69 46.66 84.69 47.22 83.56C47.78 82.46 48.07 81.26 48.14 79.99C48.27 77.86 48.99 74.69 50.1 72.23C51.35 69.43 53.02 67.96 55.15 67.76C56.3 67.66 57.45 67.83 58.43 68.29C59.25 68.66 60.04 69.23 60.66 69.93C61.81 71.16 62.36 72.56 62.43 72.86L62.43 72.83L62.82 74.13L63.38 72.99C64.26 71.13 65.51 68.19 66.43 64.76C67.44 61.49 67.77 58.53 67.54 56.03ZM36.57 64.56L36.8 64.86C37.52 65.83 38.27 66.66 38.89 67.33L40.3 68.86C42.57 71.26 44.34 73.16 45.15 74.56C46.2 76.36 46.96 78.13 47.22 79.46C47.25 79.59 47.29 79.86 47.29 79.96C47.15 82.83 45.68 84.63 44.4 85.69C42.79 87.03 40.66 87.83 38.7 87.83C36.7 87.83 34.6 87.06 32.99 85.69C31.68 84.59 30.11 82.63 30.11 79.56L30.11 64.63L36.57 64.56ZM38.27 43.06L38.5 42.89C38.66 43.13 38.76 43.33 38.76 43.56C38.83 44.36 38.11 45.23 37.22 46.36C36.63 47.09 35.98 47.96 35.32 48.96C34.7 49.13 34.17 49.06 33.81 48.79C33.58 48.59 33.42 48.33 33.39 47.96C33.32 47.29 33.88 46.43 34.99 45.39C36.08 44.53 37.35 43.69 38.27 43.06ZM65.61 64.53C64.89 67.26 63.94 69.73 63.08 71.49C62.76 70.83 62.27 70.06 61.58 69.33C60.4 67.99 58.3 66.49 55.15 66.76C53.81 66.89 52.6 67.46 51.55 68.39C50.69 69.19 49.94 70.36 49.29 71.79C48.53 73.53 48.01 75.49 47.61 77.33C47.22 76.29 46.7 75.19 46.01 74.03C45.12 72.53 43.32 70.59 41.02 68.16L39.62 66.63C38.11 64.99 36.83 63.33 35.91 61.73C34.9 59.96 34.31 58.29 34.17 56.86C34.04 55.49 34.14 54.43 34.44 53.33C34.7 52.33 35.19 51.29 36.08 49.79C36.7 48.69 37.39 47.83 38.04 47.06C39.09 45.76 39.88 44.73 39.78 43.53C39.68 42.53 38.86 41.59 37.26 40.73C36.57 40.36 35.78 40.03 35.06 39.76C36.6 39.46 38.6 39.06 38.6 39.06L38.89 38.99L38.99 38.73C39.71 36.36 41.32 35.29 42.2 35.26C42.83 35.23 45.81 35.46 47.97 35.59C47.52 36.03 46.96 36.59 46.53 37.03C45.84 37.73 45.06 37.93 43.91 38.19L42.79 38.46L43.22 39.09C43.45 39.43 44.63 42.23 44.99 43.79C45.09 44.13 45.22 45.23 45.35 46.46C45.61 48.59 45.97 51.29 46.34 52.76C46.83 54.86 47.88 56.49 49.68 57.86L50.27 58.29L50.37 57.93C50.86 56.29 52.2 53.89 53.51 52.29C54.66 50.86 56.53 49.13 58.66 48.86C60.4 48.63 62.23 49.23 63.67 50.43C65.28 51.76 66.3 53.79 66.49 56.13C66.76 58.49 66.43 61.33 65.61 64.53ZM42.27 39.89C42.2 39.09 41.48 38.46 40.66 38.56C39.88 38.63 39.25 39.36 39.35 40.19C39.42 40.99 40.14 41.63 40.96 41.53C41.75 41.43 42.34 40.69 42.27 39.89ZM41.25 39.99C41.29 40.23 41.09 40.46 40.86 40.49C40.63 40.53 40.4 40.33 40.37 40.09C40.34 39.86 40.53 39.63 40.76 39.59C41.02 39.53 41.22 39.69 41.25 39.99ZM37.42 81.43L37.42 81.66C37.42 81.99 37.39 82.16 36.76 82.16C36.47 82.16 36.08 82.13 35.75 82.03L35.65 82.73C35.94 82.83 36.34 82.89 36.8 82.89C37.98 82.89 38.24 82.46 38.24 81.73L38.24 81.33C38.24 80.73 38.01 80.33 37.22 80.29C36.99 80.29 36.86 80.26 36.63 80.26L36.63 79.16L38.17 79.16L38.17 78.46L35.78 78.46L35.78 80.93C36.11 80.93 36.37 80.93 36.83 80.96C37.35 80.99 37.42 81.09 37.42 81.43ZM32.54 82.79L35.09 82.79L35.09 82.09L34.21 82.09L34.21 78.46L33.49 78.46L32.4 78.79L32.6 79.49L33.42 79.26L33.42 82.09L32.57 82.09L32.57 82.79L32.54 82.79ZM38.89 81.46L38.89 81.73C38.89 82.49 39.25 82.86 40.3 82.86C41.35 82.86 41.71 82.56 41.71 81.73L41.71 81.46C41.71 81.09 41.58 80.83 41.09 80.59C41.52 80.36 41.61 80.09 41.61 79.76L41.61 79.46C41.61 78.79 41.29 78.39 40.34 78.39C39.39 78.39 39.06 78.79 39.06 79.46L39.06 79.76C39.06 80.09 39.19 80.36 39.58 80.59C39.03 80.83 38.89 81.09 38.89 81.46ZM40.83 79.76C40.83 79.99 40.76 80.09 40.3 80.29C39.84 80.09 39.78 80.03 39.78 79.76L39.78 79.49C39.78 79.23 39.88 79.09 40.3 79.09C40.73 79.09 40.83 79.26 40.83 79.49L40.83 79.76ZM39.68 81.53C39.68 81.26 39.75 81.13 40.3 80.89C40.86 81.13 40.93 81.23 40.93 81.53L40.93 81.73C40.93 82.06 40.76 82.16 40.3 82.16C39.84 82.16 39.68 82.03 39.68 81.73L39.68 81.53ZM43.68 78.46L42.14 81.06L42.14 81.79L44.01 81.79L44.01 82.76L44.79 82.76L44.79 81.79L45.32 81.79L45.32 81.09L44.79 81.09L44.79 78.43L43.68 78.43L43.68 78.46ZM42.96 81.13L44.01 79.23L44.01 81.13L42.96 81.13Z" fill="#E1001A" fill-opacity="1.000000" fill-rule="nonzero"/>
	</g>
	<rect id="Frame 226" rx="-0.500000" width="254.000000" height="134.000000" transform="translate(0.500000 0.500000)" stroke="#C4C4C4" stroke-opacity="1.000000" stroke-width="1.000000"/>
</svg>
