<svg width="255.000000" height="135.000000" viewBox="0 0 255 135" fill="none" xmlns="http://www.w3.org/2000/svg" xmlns:xlink="http://www.w3.org/1999/xlink">
	<desc>
			Created with Pixso.
	</desc>
	<defs/>
	<rect id="Frame 225" width="186.000000" height="53.000000" transform="translate(35.000000 41.000000)" fill="#FFFFFF" fill-opacity="0"/>
	<path id="Vector" d="M70.23 48C73.31 49.9 77.08 55.03 78.39 58.84C79.93 63.08 78.47 67.26 74.85 70.34C68.92 75.32 65.15 78.76 62.38 81.91C60.23 84.4 57.54 87.55 57.77 94C52.08 87.48 51 77.44 57.15 70.92C63.77 63.89 65 62.42 67.46 59.35C69.77 56.42 70.62 52.24 70.23 48Z" fill="#558EC0" fill-opacity="1.000000" fill-rule="evenodd"/>
	<path id="Vector" d="M44.5 80C28.51 66.47 32.87 47.68 56.27 42.35C58.77 41.75 59.86 41.52 61.11 41C62.44 43.63 62.59 45.65 59.32 47.83C51.13 53.17 38.72 60.46 44.5 80Z" fill="#558EC0" fill-opacity="1.000000" fill-rule="evenodd"/>
	<path id="Vector" d="M102.91 83.33C101.6 83.85 100.95 84 98.99 84C91.21 84 85 78.16 85 71C85 63.83 91.3 58 98.99 58C100.3 58 101.6 58.14 103 58.59L103 65.01C101.77 64.35 100.54 64.05 98.99 64.05C94.73 64.05 91.3 67.15 91.3 71C91.3 74.84 94.73 77.94 98.99 77.94C100.79 77.94 101.69 77.64 102.83 77.05L102.91 83.33Z" fill="#053D5B" fill-opacity="1.000000" fill-rule="evenodd"/>
	<path id="Vector" d="M191 71C191 78.16 184.92 84 177.5 84C170 84 164 78.16 164 71C164 63.83 170.07 58 177.5 58C184.92 58 191 63.83 191 71ZM177.42 64.05C173.31 64.05 170 67.15 170 71C170 74.84 173.31 77.94 177.42 77.94C181.52 77.94 184.84 74.84 184.84 71C184.84 67.15 181.52 64.05 177.42 64.05Z" fill="#053D5B" fill-opacity="1.000000" fill-rule="evenodd"/>
	<path id="Vector" d="M133.89 83.92L127 83.92L127 68.04C127 62.72 131.67 58 137.5 58C143.32 58 148 62.72 148 68.04L148 84L141.1 84L141.1 68.04C141.1 65.71 139.46 64.29 137.41 64.29C135.36 64.29 133.72 65.94 133.72 68.04L133.89 83.92Z" fill="#053D5B" fill-opacity="1.000000" fill-rule="evenodd"/>
	<path id="Vector" d="M199.56 83.92L193 83.92L193 68.04C193 62.72 197.45 58 203 58C208.54 58 213 62.72 213 68.04L213 84L206.43 84L206.43 68.04C206.43 65.79 204.87 64.29 202.92 64.29C200.96 64.29 199.4 65.94 199.4 68.04L199.56 83.92Z" fill="#053D5B" fill-opacity="1.000000" fill-rule="evenodd"/>
	<path id="Vector" d="M111.56 77.18L111.56 83.92L105 83.92L105 68.04C105 62.72 109.45 58 115 58C120.54 58 125 62.72 125 68.04L125 84L118.43 84L118.43 77.1L111.56 77.1L111.56 77.18ZM118.51 71.26L118.51 68.11C118.51 65.86 116.95 64.36 115 64.36C113.2 64.36 111.48 66.01 111.48 68.11L111.48 71.33L118.51 71.33L118.51 71.26Z" fill="#053D5B" fill-opacity="1.000000" fill-rule="evenodd"/>
	<path id="Vector" d="M159.19 67.57L161.25 71.2C164.82 77.25 161.17 85.73 150 83.68L150 77.71C154.59 79.37 157.13 77.03 155.15 73.32C155.15 73.32 153.72 70.82 152.61 68.93C149.92 64.39 153.32 56.68 163 58.19L163 64.32C160.54 62.58 157.29 64.32 159.19 67.57Z" fill="#053D5B" fill-opacity="1.000000" fill-rule="evenodd"/>
	<path id="Vector" d="M221 61.5C221 62.23 220.64 62.82 220.11 63.26C219.58 63.7 218.79 64 218 64C217.11 64 216.41 63.7 215.88 63.26C215.35 62.82 215 62.16 215 61.5C215 60.76 215.35 60.17 215.88 59.73C216.41 59.29 217.2 59 218 59C218.79 59 219.58 59.29 220.11 59.73C220.64 60.17 221 60.76 221 61.5ZM219.85 63.11C220.38 62.67 220.64 62.16 220.64 61.5C220.64 60.91 220.38 60.32 219.85 59.88C219.32 59.44 218.7 59.22 217.91 59.22C217.11 59.22 216.5 59.44 215.97 59.88C215.44 60.32 215.17 60.83 215.17 61.5C215.17 62.16 215.44 62.67 215.97 63.11C216.5 63.55 217.11 63.77 217.91 63.77C218.7 63.77 219.32 63.48 219.85 63.11Z" fill="#053D5B" fill-opacity="1.000000" fill-rule="nonzero"/>
	<path id="Vector" d="M217.47 60.39L218.11 60.39C218.35 60.39 218.52 60.47 218.52 60.86C218.52 61.18 218.41 61.34 218.11 61.34L217.47 61.34L217.47 60.39ZM217.05 63L217.47 63L217.47 61.73L218.05 61.73C218.41 61.73 218.52 61.97 218.52 62.52C218.52 62.68 218.52 62.84 218.58 63L219 63C218.94 62.84 218.88 62.52 218.88 62.21C218.88 61.73 218.7 61.57 218.52 61.57C218.58 61.57 218.88 61.42 218.88 60.78C218.88 60.23 218.64 60 218.11 60L217 60L217 63L217.05 63Z" fill="#053D5B" fill-opacity="1.000000" fill-rule="evenodd"/>
	<rect id="Frame 225" rx="-0.500000" width="254.000000" height="134.000000" transform="translate(0.500000 0.500000)" stroke="#C4C4C4" stroke-opacity="1.000000" stroke-width="1.000000"/>
</svg>
