<svg width="255.000000" height="135.000000" viewBox="0 0 255 135" fill="none" xmlns="http://www.w3.org/2000/svg" xmlns:xlink="http://www.w3.org/1999/xlink">
	<desc>
			Created with Pixso.
	</desc>
	<defs>
		<clipPath id="clip1_588">
			<rect id="royal-talens-bv-logo-vector 1" width="225.000000" height="21.000000" transform="translate(15.000000 57.000000)" fill="white" fill-opacity="0"/>
		</clipPath>
	</defs>
	<rect id="royal-talens-bv-logo-vector 1" width="225.000000" height="21.000000" transform="translate(15.000000 57.000000)" fill="#FFFFFF" fill-opacity="0"/>
	<g clip-path="url(#clip1_588)">
		<path id="Vector" d="M28.55 77.14L26.04 77.8L20.57 69.56L17.5 69.48L17.65 77.45L15.18 77.65L15.18 57.5L19.97 57.35C22.14 57.27 23.83 57.77 24.99 58.78C26.15 59.83 26.75 61.23 26.75 62.91C26.75 64.03 26.38 65.12 25.66 66.21C24.95 67.34 23.94 68.2 22.59 68.74L22.59 68.82L28.55 77.14ZM17.61 58.94L17.47 68.12L21.21 67.96C22.56 67.57 24.17 65.94 24.17 63.53C24.17 60.85 22.48 59.1 19.67 59.02L17.61 58.94ZM40.19 77.8C34.8 77.8 30.57 73.64 30.57 67.42C30.57 61.7 35.36 57.03 40.75 57.03C46.18 57.03 50.41 61.23 50.41 67.46C50.37 73.21 45.36 77.8 40.19 77.8ZM40.56 76.13C44.79 76.13 47.75 72.86 47.75 67.65C47.75 62.44 44.31 58.71 40.38 58.71C36.18 58.71 33.19 61.93 33.19 67.22C33.19 72.32 36.71 76.13 40.56 76.13ZM61.01 77.45L58.53 77.65L58.53 68.08L51.23 57.7L53.89 57.35L60.03 66.64L66.36 57.35L68.49 57.7L60.97 68.2L61.01 77.45ZM85.26 77.41L82.68 77.68L80.77 72.36L71.45 72.55L69.54 77.65L67.41 77.41L75.76 57.35L76.88 57.07L85.26 77.41ZM76.02 60.81L72.16 70.76L80.17 70.92L76.02 60.81ZM93.84 77.45L88.71 77.61L88.71 57.54L91.18 57.35L91.07 65.86L91.14 75.9L99.38 75.58L99.19 77.49L93.84 77.45ZM150.78 77.45L148.31 77.65L148.31 59.02L140.82 59.29L141.01 57.35L149.32 57.35L158.04 57.15L157.86 59.21L150.82 58.94L150.67 66.33L150.78 77.45ZM174.63 77.41L172.05 77.68L170.14 72.36L160.81 72.55L158.9 77.65L156.77 77.41L165.12 57.35L166.24 57.07L174.63 77.41ZM165.38 60.81L161.53 70.76L169.54 70.92L165.38 60.81ZM183.2 77.45L178.07 77.61L178.07 57.54L180.54 57.35L180.43 65.82L180.51 75.86L188.74 75.55L188.56 77.45L183.2 77.45ZM195.52 77.45L192.26 77.61L192.26 57.5L196.9 57.35L202.67 57.35L202.48 59.29L194.73 58.98L194.55 66.6L201.28 66.41L200.87 68.31L194.51 68.12L194.7 75.86L203.31 75.58L203.12 77.49L195.52 77.49L195.52 77.45ZM209.41 77.45L207.2 77.65L207.39 57.54L209.18 57.35L221.13 72.9L220.9 57.54L223.11 57.35L222.85 77.45L222.02 77.61L209.15 61.35L209.41 77.45ZM232.84 77.65C231.72 77.65 230.6 77.41 229.51 76.95C228.43 76.48 227.6 75.9 227 75.31L228.2 73.95C229.7 75.12 231.31 76.01 233.48 76.01C235.88 76.01 237.52 74.88 237.52 72.67C237.52 71.5 237.11 70.61 236.36 70.06C235.61 69.52 234.57 68.97 233.29 68.43C230.64 67.34 227.79 66.21 227.79 62.52C227.79 59.56 230.37 57.19 233.89 57.19C235.73 57.19 237.64 57.73 238.76 58.59L238.31 60.34C237.19 59.8 235.02 58.98 233.37 58.98C231.53 58.98 230 59.87 230 61.82C230 63.06 230.41 63.96 231.16 64.5C231.91 65.08 232.96 65.63 234.19 66.17C236.81 67.34 239.73 68.27 239.73 71.89C239.77 75.7 236.44 77.65 232.84 77.65Z" fill="#333333" fill-opacity="1.000000" fill-rule="nonzero"/>
		<path id="Vector" d="M110.27 57.07L110.27 77.57L130 77.57L130 57.07L110.27 57.07ZM120.12 76.71C115.1 76.71 111.06 72.51 111.06 67.3C111.06 62.09 115.1 57.89 120.12 57.89C125.14 57.89 129.18 62.09 129.18 67.3C129.18 72.51 125.14 76.71 120.12 76.71ZM112.18 68.97C112.37 69.91 113.27 72.16 114.8 71.62C115.93 71.19 116 70.1 116.23 68.86C116.41 67.69 116.71 65.47 117.09 65.01C117.13 64.97 117.09 64.93 117.05 64.93C116.15 64.97 115.55 67.07 115.22 68.04C114.58 69.94 112.63 70.1 112.3 68.93C112.3 68.93 112.18 68.93 112.18 68.97ZM127.91 65.67C127.68 65.16 127.53 64.97 127.31 64.5C127.5 63.96 127.72 63.22 127.68 62.91C127.53 61.58 125.81 62.98 126.19 64.69C126.3 65.16 126.41 65.51 126.48 65.82C125.96 66.91 125.74 66.72 125.77 66.33C125.81 66.06 125.85 65.51 125.85 65.51C126 64.46 125.47 64.38 125.14 64.62C124.95 64.73 124.69 65.12 124.58 65.36L124.69 64.85L123.75 65.24L123.45 66.83C123.08 67.73 122.67 67.88 122.4 67.84C122.33 67.81 122.25 67.77 122.18 67.73C123.04 66.95 123.34 66.29 123.27 65.82C123.19 65.32 122.82 65.32 122.55 65.39C121.88 65.63 121.32 66.33 121.17 67.3C121.13 67.61 121.13 67.92 121.21 68.16C120.61 69.13 120.57 68.58 120.64 68.19C120.83 67.3 121.43 63.61 121.43 63.61L120.49 63.99C120.49 63.99 119.93 67.22 119.71 68.47C119.26 69.59 119.15 69.17 119.22 68.78C119.37 67.88 119.6 66.72 119.6 66.72L118.7 67.07C118.7 67.07 118.62 67.34 118.55 67.81C118.44 67.46 118.21 67.22 117.91 67.18C117.35 67.11 116.75 67.88 116.56 68.82C116.38 69.79 116.68 70.64 117.24 70.68C117.65 70.72 118.06 70.37 118.32 69.83C118.47 70.18 118.85 70.14 119.07 69.98C119.3 69.83 119.52 69.44 119.67 69.13C119.75 69.59 120.12 69.59 120.38 69.44C120.79 69.21 121.17 68.66 121.36 68.43C121.51 68.7 121.77 68.86 122.07 68.82C122.48 68.78 122.97 68.23 123.34 67.61L123.19 68.35L124.13 67.96L124.46 66.17C124.91 65.04 125.06 65.43 125.02 65.78C125.02 65.78 124.99 66.09 124.91 66.6C124.8 67.65 125.25 67.69 125.59 67.49C126.07 67.18 126.37 66.6 126.63 66.06C126.82 66.52 127.05 66.91 127.23 67.49C128.58 71.42 123.49 71.03 121.47 71.11C119.6 71.19 119.41 72.86 119.22 74.14C126.19 74.22 129.33 68.89 127.91 65.67ZM118.4 68.66C118.36 69.13 118.06 69.63 117.8 69.63C117.54 69.63 117.35 69.24 117.42 68.7C117.5 68.23 117.72 67.81 117.99 67.81C118.25 67.81 118.44 68.19 118.4 68.66ZM122.07 67.42C122.03 67.3 122.03 67.18 122.03 67.03C122.07 66.56 122.29 66.06 122.59 65.98C122.7 65.94 122.82 65.98 122.82 66.17C122.82 66.6 122.4 67.11 122.07 67.42ZM127.16 64.15C127.12 64.11 127.12 64.07 127.12 64.03C126.56 62.63 127.31 62.44 127.38 63.02C127.38 63.33 127.31 63.76 127.16 64.15ZM121.09 60.14C120.98 61.04 120.91 62.91 119.22 63.18C116.45 63.64 112.75 64.89 112.15 67.69C112.15 67.73 112.03 67.73 112.03 67.73C111.96 63.33 115.74 60.14 121.09 60.14Z" fill="#FF0000" fill-opacity="1.000000" fill-rule="nonzero"/>
	</g>
	<rect id="Frame 228" rx="-0.500000" width="254.000000" height="134.000000" transform="translate(0.500000 0.500000)" stroke="#C4C4C4" stroke-opacity="1.000000" stroke-width="1.000000"/>
</svg>
