<svg width="255.000000" height="135.000000" viewBox="0 0 255 135" fill="none" xmlns="http://www.w3.org/2000/svg" xmlns:xlink="http://www.w3.org/1999/xlink">
	<desc>
			Created with Pixso.
	</desc>
	<defs>
		<clipPath id="clip1_581">
			<rect id="Frame" width="209.000000" height="26.000000" transform="translate(23.000000 54.000000)" fill="white" fill-opacity="0"/>
		</clipPath>
	</defs>
	<g clip-path="url(#clip1_581)">
		<path id="Vector" d="M149.09 79.92L146.83 79.92L146.83 54.07L149.09 54.07L149.09 79.92ZM202.73 54.07L202.73 75.74L182.57 54.07L182.57 54L180.23 54L180.23 79.92L182.57 79.92L182.57 58.02L202.73 79.92L202.73 79.84L202.73 79.92L205.06 79.92L205.06 54.07L202.73 54.07ZM175.12 54.07L175.12 54.15L151.19 79.84L154.65 79.84L175.12 57.26L175.12 72.24L165.04 72.24L165.04 74.6L175.12 74.6L175.12 79.84L177.37 79.84L177.37 54.07L175.12 54.07Z" fill="#000000" fill-opacity="1.000000" fill-rule="evenodd"/>
		<path id="Vector" d="M146.83 79.92L146.83 54.07L149.09 54.07L149.09 79.92L146.83 79.92ZM202.73 75.74L182.57 54.07L182.57 54L180.23 54L180.23 79.92L182.57 79.92L182.57 58.02L202.73 79.92L205.06 79.92L205.06 54.07L202.73 54.07L202.73 75.74ZM202.73 79.92L202.73 79.84L202.73 79.92M175.12 54.15L151.19 79.84L154.65 79.84L175.12 57.26L175.12 72.24L165.04 72.24L165.04 74.6L175.12 74.6L175.12 79.84L177.37 79.84L177.37 54.07L175.12 54.07L175.12 54.15Z" stroke="#000000" stroke-opacity="1.000000" stroke-width="0.000000"/>
		<path id="Vector" d="M137.2 68.13L137.35 68.13C141.11 68.13 144.2 64.71 144.2 60.91C144.2 57.26 141.34 54.22 137.8 54.07L137.8 54L137.42 54L118.92 54L118.92 79.92L121.25 79.92L121.25 56.35L137.65 56.35C138.76 56.5 139.77 57.04 140.51 57.88C141.24 58.72 141.64 59.8 141.64 60.91C141.64 63.35 139.76 65.7 137.28 65.86L134.12 65.86L134.12 68.44L134.19 68.44L140.89 79.84L144.57 79.84L137.2 68.13ZM104.02 54L91.46 54.07L91.46 79.92L110.34 79.92C113.95 79.69 116.74 76.65 116.74 73C116.74 70.49 115.46 68.36 113.5 67.14C115.46 65.93 116.74 63.42 116.74 60.91C116.74 57.26 113.95 54.3 110.42 54.07L110.42 54L104.02 54ZM104.02 77.56L93.79 77.56L93.79 56.35L110.27 56.35C111.37 56.5 112.39 57.04 113.12 57.88C113.86 58.72 114.26 59.8 114.25 60.91C114.25 63.42 112.22 65.78 109.74 65.86L109.74 68.44C112.22 68.44 114.25 70.49 114.25 73C114.25 75.36 112.45 77.26 110.19 77.56L104.02 77.56Z" fill="#000000" fill-opacity="1.000000" fill-rule="evenodd"/>
		<path id="Vector" d="M23 54L23 79.84L25.33 79.84L45.79 57.87L45.79 72.24L35.86 72.24L35.86 74.6L45.79 74.6L45.79 79.84L48.05 79.84L48.05 54L23 54ZM25.33 76.34L25.33 67.53L33.6 67.53L25.33 76.34ZM25.33 65.17L25.33 56.35L44.14 56.35L35.86 65.17L25.33 65.17Z" fill="#00ACEC" fill-opacity="1.000000" fill-rule="evenodd"/>
		<path id="Vector" d="M219.21 54C212.13 54 206.34 59.77 206.34 66.92C206.34 74.06 212.13 79.92 219.21 79.92C226.28 79.92 232 74.06 232 66.92C232 59.77 226.28 54 219.21 54ZM219.21 77.18C213.64 77.18 209.2 72.62 209.2 67.07C209.2 61.45 213.64 56.96 219.21 56.96C224.7 56.96 229.21 61.45 229.21 67.07C229.21 72.62 224.7 77.18 219.21 77.18Z" fill="#000000" fill-opacity="1.000000" fill-rule="evenodd"/>
		<path id="Vector" d="M81.75 56.5L81.75 54.15L56.55 54.15L56.55 79.92L58.81 79.92L58.81 68.06L73.66 68.06L62.72 79.84L66.18 79.84L86.57 57.26L86.57 72.24L76.56 72.24L76.56 74.6L86.57 74.6L86.72 79.99L89.05 79.99L88.9 54.07L86.57 54.07L86.57 54.15L75.84 65.7L58.81 65.7L58.81 56.5L81.75 56.5Z" fill="#000000" fill-opacity="1.000000" fill-rule="evenodd"/>
		<path id="Vector" d="M81.75 54.15L56.55 54.15L56.55 79.92L58.81 79.92L58.81 68.06L73.66 68.06L62.72 79.84L66.18 79.84L86.57 57.26L86.57 72.24L76.56 72.24L76.56 74.6L86.57 74.6L86.72 79.99L89.05 79.99L88.9 54.07L86.57 54.07L86.57 54.15L75.84 65.7L58.81 65.7L58.81 56.5L81.75 56.5L81.75 54.15Z" stroke="#000000" stroke-opacity="1.000000" stroke-width="0.000000"/>
	</g>
	<rect id="Frame 227" rx="-0.500000" width="254.000000" height="134.000000" transform="translate(0.500000 0.500000)" stroke="#C4C4C4" stroke-opacity="1.000000" stroke-width="1.000000"/>
</svg>
